<?xml version="1.0" standalone="no"?>
<!DOCTYPE svg PUBLIC "-//W3C//DTD SVG 20010904//EN"
 "http://www.w3.org/TR/2001/REC-SVG-20010904/DTD/svg10.dtd">
<svg version="1.0" xmlns="http://www.w3.org/2000/svg"
 width="700.000000pt" height="700.000000pt" viewBox="0 0 700.000000 700.000000"
 preserveAspectRatio="xMidYMid meet">
<metadata>
Created by potrace 1.14, written by Peter Selinger 2001-2017
</metadata>
<g transform="translate(0.000000,700.000000) scale(0.100000,-0.100000)"
fill="#000000" stroke="none">
<path d="M3020 6994 c-237 -9 -515 -27 -690 -45 -1499 -150 -2087 -707 -2265
-2142 -77 -619 -86 -1721 -19 -2427 149 -1595 737 -2183 2334 -2334 348 -33
552 -41 1125 -40 571 0 777 7 1115 39 1505 144 2106 676 2299 2035 58 404 76
742 75 1425 0 562 -7 773 -40 1115 -149 1582 -731 2175 -2284 2329 -113 11
-281 25 -375 31 -164 11 -1100 21 -1275 14z m-740 -2059 c25 -8 137 -82 250
-163 113 -82 466 -337 785 -566 319 -230 597 -434 618 -454 21 -21 55 -71 75
-111 36 -72 37 -79 37 -181 0 -99 -2 -109 -33 -172 -18 -37 -52 -86 -75 -110
-49 -50 -592 -427 -640 -445 -43 -15 -124 -15 -168 1 -83 29 -149 111 -164
203 -9 57 17 143 57 189 17 19 110 89 207 155 114 77 180 129 187 145 13 32 7
68 -15 88 -9 8 -234 168 -500 355 -450 317 -487 341 -526 341 -50 0 -91 -28
-111 -76 -12 -28 -14 -186 -14 -896 0 -825 -1 -865 -19 -903 -30 -62 -55 -86
-206 -191 -118 -84 -145 -99 -178 -99 -31 0 -45 7 -68 33 l-29 33 2 1252 3
1252 23 58 c30 72 103 170 160 214 91 69 227 88 342 48z m1453 -1 c34 -17 88
-56 552 -389 160 -115 454 -326 655 -471 201 -144 385 -283 409 -309 23 -25
57 -76 74 -113 30 -63 32 -74 32 -178 0 -107 -1 -112 -37 -185 -48 -97 -89
-135 -398 -371 -140 -107 -426 -326 -635 -486 -209 -160 -399 -301 -422 -312
-59 -28 -143 -27 -208 4 -98 45 -152 139 -142 247 10 113 5 108 617 581 305
236 563 439 572 451 11 14 18 40 18 69 0 38 -5 53 -27 77 -16 16 -320 240
-678 496 -357 257 -662 481 -677 498 -116 134 -49 357 122 406 45 13 133 5
173 -15z"/>
</g>
</svg>
